<svg width="64" height="65" viewBox="0 0 64 65" fill="none" xmlns="http://www.w3.org/2000/svg">
<g clip-path="url(#clip0_6_206)">
<g clip-path="url(#clip1_6_206)">
<path d="M64 34.4287V30.528H34.2182V27.9637H63.5974C63.5974 27.9637 61.2512 3.50894 36.7232 0.371619V22.8779H56.9862C56.9862 22.8779 53.5731 13.464 48.4544 11.2999V19.0909H40.6694V5.56519C40.6694 5.56519 54.8525 7.62144 59.4387 24.6094L34.2182 24.4586V0H30.375V24.4352L5.15712 24.2845C5.15712 24.2845 8.56896 9.13585 24.2458 4.91615L24.0326 19.0909H16.3546V11.0842C16.3546 11.0842 9.95584 14.3301 7.39648 22.8786H27.552V0.480116C27.552 0.480116 3.66336 4.05078 0.35776 27.9637H30.375V30.528H0V34.4287H30.375V37.3763H0.41088C3.71712 61.2885 27.6058 64.8592 27.6058 64.8592V42.4614H7.4496C10.009 51.0099 16.4077 54.2557 16.4077 54.2557V46.249H24.0864L24.2995 60.4238C8.62272 56.2041 5.21024 41.0548 5.21024 41.0548L30.375 40.9047V64.9352H34.2182V40.8813L59.4918 40.7312C54.9062 57.7185 40.7226 59.7754 40.7226 59.7754V46.249H48.5082V54.0394C53.6269 51.8759 57.0394 42.4627 57.0394 42.4627H36.7763V64.9683C61.305 61.831 63.6512 37.3763 63.6512 37.3763H34.2182V34.4287H64Z" fill="#A4A4A4"/>
</g>
</g>
<defs>
<clipPath id="clip0_6_206">
<rect width="64" height="64.9683" fill="white"/>
</clipPath>
<clipPath id="clip1_6_206">
<rect width="64" height="64.9683" fill="white"/>
</clipPath>
</defs>
</svg>
