<svg width="137" height="21" viewBox="0 0 137 21" fill="none" xmlns="http://www.w3.org/2000/svg">
<g clip-path="url(#clip0_1_5)">
<g clip-path="url(#clip1_1_5)">
<g clip-path="url(#clip2_1_5)">
<g clip-path="url(#clip3_1_5)">
<g clip-path="url(#clip4_1_5)">
<g clip-path="url(#clip5_1_5)">
<g clip-path="url(#clip6_1_5)">
<g clip-path="url(#clip7_1_5)">
<path d="M30.6275 2.91656C31.8348 2.91656 32.893 3.18332 33.8021 3.71683C34.7112 4.25034 35.4186 5.01744 35.9242 6.01813C36.4271 7.02171 36.6785 8.20841 36.6785 9.57823V11.5248C36.6785 12.8946 36.4271 14.0799 35.9242 15.0806C35.4186 16.0842 34.7112 16.8527 33.8021 17.3862C32.893 17.9197 31.8348 18.1865 30.6275 18.1865C29.4201 18.1865 28.3619 17.9197 27.4528 17.3862C26.5437 16.8527 25.8378 16.0842 25.335 15.0806C24.8293 14.0799 24.5764 12.8946 24.5764 11.5248V9.57823C24.5764 8.20841 24.8293 7.02171 25.335 6.01813C25.8378 5.01744 26.5437 4.25034 27.4528 3.71683C28.3619 3.18332 29.4201 2.91656 30.6275 2.91656ZM30.6275 4.84153C29.3775 4.84153 28.4045 5.24526 27.7085 6.05274C27.0125 6.86021 26.6645 8.03538 26.6645 9.57823V11.5248C26.6645 13.0677 27.0025 14.2428 27.6787 15.0503C28.3519 15.8578 29.3349 16.2615 30.6275 16.2615C31.8774 16.2615 32.8504 15.8607 33.5464 15.059C34.2425 14.2601 34.5905 13.0821 34.5905 11.5248V9.57823C34.5905 8.03538 34.2538 6.86021 33.5805 6.05274C32.9044 5.24526 31.9201 4.84153 30.6275 4.84153ZM45.0093 3.13285C46.2309 3.13285 47.2962 3.40249 48.2052 3.94177C49.1143 4.48393 49.8174 5.25536 50.3146 6.25605C50.8117 7.25962 51.0603 8.43911 51.0603 9.79452V11.3085C51.0603 12.6639 50.8117 13.842 50.3146 14.8427C49.8174 15.8462 49.1143 16.6177 48.2052 17.157C47.2962 17.6991 46.2309 17.9702 45.0093 17.9702H39.9384V3.13285H45.0093ZM45.0093 5.05781H42.0264V16.0452H45.0093C46.2735 16.0452 47.2493 15.6444 47.9368 14.8427C48.6271 14.0438 48.9723 12.8658 48.9723 11.3085V9.79452C48.9723 8.26608 48.6342 7.0938 47.9581 6.27768C47.2848 5.46443 46.3019 5.05781 45.0093 5.05781ZM62.4805 3.13285H64.6325L59.4976 12.2386V17.9702H57.4054V12.2386L52.2535 3.13285H54.6355L58.5389 10.0324H58.6241L62.4805 3.13285ZM71.2332 2.91656C72.8383 2.91656 74.0996 3.27704 75.0172 3.998C75.932 4.71896 76.3894 5.74272 76.3894 7.06929V7.32884H74.3013V7.0044C74.3013 6.31228 74.0243 5.77877 73.4704 5.40387C72.9164 5.02898 72.1849 4.84153 71.2758 4.84153C70.2673 4.84153 69.4832 5.01023 68.9236 5.34764C68.3611 5.68793 68.0799 6.1753 68.0799 6.80974C68.0799 7.28558 68.2404 7.6749 68.5614 7.9777C68.8796 8.2805 69.2773 8.51842 69.7545 8.69145C70.229 8.86448 70.8852 9.05914 71.7233 9.27542C72.8028 9.56381 73.6763 9.84498 74.3439 10.1189C75.0115 10.3929 75.584 10.8039 76.0612 11.3518C76.5357 11.8997 76.7729 12.6279 76.7729 13.5363C76.7729 15.1512 76.2871 16.3293 75.3155 17.0704C74.3411 17.8145 72.9732 18.1865 71.2119 18.1865C69.4506 18.1865 68.0841 17.8073 67.1126 17.0488C66.1381 16.2932 65.6509 15.1945 65.6509 13.7526L65.6722 13.32H67.7603L67.739 13.7742C67.739 14.6105 68.0486 15.2334 68.6679 15.6429C69.2844 16.0553 70.1395 16.2615 71.2332 16.2615C72.2985 16.2615 73.1408 16.0625 73.7602 15.6646C74.3766 15.2695 74.6848 14.7259 74.6848 14.0338C74.6848 13.4858 74.5187 13.0417 74.1863 12.7014C73.8511 12.364 73.432 12.1016 72.9292 11.9141C72.4235 11.7267 71.7375 11.5176 70.871 11.2869C69.8057 10.9985 68.9534 10.7246 68.3142 10.465C67.675 10.2055 67.1282 9.80461 66.6736 9.26245C66.2191 8.72317 65.9918 8.01375 65.9918 7.13418C65.9918 5.70668 66.4677 4.64687 67.4194 3.95475C68.371 3.26262 69.6423 2.91656 71.2332 2.91656ZM84.5923 2.91656C86.1974 2.91656 87.4573 3.27704 88.3721 3.998C89.2897 4.71896 89.7485 5.74272 89.7485 7.06929V7.32884H87.6604V7.0044C87.6604 6.31228 87.3835 5.77877 86.8295 5.40387C86.2755 5.02898 85.544 4.84153 84.6349 4.84153C83.6264 4.84153 82.8424 5.01023 82.2827 5.34764C81.7202 5.68793 81.439 6.1753 81.439 6.80974C81.439 7.28558 81.5995 7.6749 81.9205 7.9777C82.2387 8.2805 82.635 8.51842 83.1094 8.69145C83.5867 8.86448 84.2443 9.05914 85.0824 9.27542C86.1619 9.56381 87.0355 9.84498 87.7031 10.1189C88.3707 10.3929 88.9431 10.8039 89.4204 11.3518C89.8948 11.8997 90.132 12.6279 90.132 13.5363C90.132 15.1512 89.6462 16.3293 88.6746 17.0704C87.7002 17.8145 86.3323 18.1865 84.571 18.1865C82.8097 18.1865 81.4432 17.8073 80.4717 17.0488C79.4973 16.2932 79.01 15.1945 79.01 13.7526L79.0314 13.32H81.1194L81.0981 13.7742C81.0981 14.6105 81.4077 15.2334 82.027 15.6429C82.6435 16.0553 83.4986 16.2615 84.5923 16.2615C85.6576 16.2615 86.4985 16.0625 87.115 15.6646C87.7343 15.2695 88.044 14.7259 88.044 14.0338C88.044 13.4858 87.8764 13.0417 87.5411 12.7014C87.2088 12.364 86.7911 12.1016 86.2883 11.9141C85.7826 11.7267 85.0966 11.5176 84.2301 11.2869C83.1648 10.9985 82.3125 10.7246 81.6733 10.465C81.0342 10.2055 80.4873 9.80461 80.0328 9.26245C79.5782 8.72317 79.3509 8.01375 79.3509 7.13418C79.3509 5.70668 79.8268 4.64687 80.7785 3.95475C81.7302 3.26262 83.0014 2.91656 84.5923 2.91656ZM93.2214 3.13285H102.809L102.532 5.05781H95.3094V9.42683H101.851V11.3518H95.3094V16.0452H102.66L102.958 17.9702H93.2214V3.13285ZM114.016 3.13285H116.168L111.034 12.2386V17.9702H108.941V12.2386L103.789 3.13285H106.171L110.075 10.0324H110.156L114.016 3.13285ZM121.874 3.13285H124.175L129.885 17.9702H127.627L126.391 14.7475H119.403L118.188 17.9702H116.164L121.874 3.13285ZM125.667 12.8225L122.982 5.68505H122.854L120.148 12.8225H125.667ZM131.1 3.13285H136.597V5.05781H134.892V16.0452H136.597V17.9702H131.1V16.0452H132.804V5.05781H131.1V3.13285Z" fill="#C4C4C4"/>
</g>
</g>
</g>
</g>
<g clip-path="url(#clip8_1_5)">
<g clip-path="url(#clip9_1_5)">
<path d="M21.0211 11.1831V9.9161H11.3474V9.08316H20.8903C20.8903 9.08316 20.1282 1.13977 12.1611 0.120709V7.43122H18.7429C18.7429 7.43122 17.6342 4.37339 15.9716 3.67045V6.20112H13.4429V1.80768C13.4429 1.80768 18.0498 2.4756 19.5395 7.99361L11.3474 7.94465V0H10.099V7.93706L1.90776 7.8881C1.90776 7.8881 3.01599 2.96751 8.10813 1.59687L8.03891 6.20112H5.54491V3.60039C5.54491 3.60039 3.46648 4.65469 2.63515 7.43143H9.18206V0.155951C9.18206 0.155951 1.42255 1.31577 0.348828 9.08316H10.099V9.9161H0.23262V11.1831H10.099V12.1406H0.366082C1.44002 19.9077 9.19953 21.0676 9.19953 21.0676V13.7923H2.6524C3.48373 16.569 5.56216 17.6233 5.56216 17.6233V15.0226H8.05637L8.12559 19.6269C3.03345 18.2562 1.92501 13.3354 1.92501 13.3354L10.099 13.2867V21.0923H11.3474V13.2791L19.5568 13.2303C18.0673 18.7481 13.4601 19.4163 13.4601 19.4163V15.0226H15.989V17.5531C17.6517 16.8503 18.7602 13.7927 18.7602 13.7927H12.1783V21.103C20.1457 20.084 20.9078 12.1406 20.9078 12.1406H11.3474V11.1831H21.0211Z" fill="#A4A4A4"/>
</g>
</g>
</g>
</g>
</g>
</g>
<defs>
<clipPath id="clip0_1_5">
<rect width="137" height="21" fill="white"/>
</clipPath>
<clipPath id="clip1_1_5">
<rect width="137" height="21" fill="white" transform="translate(-0.0830231 0.0515137)"/>
</clipPath>
<clipPath id="clip2_1_5">
<rect width="136.369" height="21.103" fill="white" transform="translate(0.23262)"/>
</clipPath>
<clipPath id="clip3_1_5">
<rect width="136.369" height="21.103" fill="white" transform="translate(0.23262)"/>
</clipPath>
<clipPath id="clip4_1_5">
<rect width="112.029" height="15.2699" fill="white" transform="translate(24.5722 2.91656)"/>
</clipPath>
<clipPath id="clip5_1_5">
<rect width="112.029" height="15.2699" fill="white" transform="translate(24.5722 2.91656)"/>
</clipPath>
<clipPath id="clip6_1_5">
<rect width="112.029" height="15.2699" fill="white" transform="translate(24.5722 2.91656)"/>
</clipPath>
<clipPath id="clip7_1_5">
<rect width="112.029" height="15.2699" fill="white" transform="translate(24.5722 2.91656)"/>
</clipPath>
<clipPath id="clip8_1_5">
<rect width="20.7885" height="21.103" fill="white" transform="translate(0.23262)"/>
</clipPath>
<clipPath id="clip9_1_5">
<rect width="20.7885" height="21.103" fill="white" transform="translate(0.23262)"/>
</clipPath>
</defs>
</svg>
